<?xml version="1.0" encoding="UTF-8"?>
<!-- Evose Horizontal Logo — WHITE -->
<svg version="1.0" xmlns="http://www.w3.org/2000/svg"
 width="568.170399pt" height="141.238092pt" viewBox="0 0 568.170399 141.238092"
 preserveAspectRatio="xMidYMid meet">
<metadata>
Created by potrace 1.16, written by Peter Selinger 2001-2019
</metadata>
<g transform="translate(-136.116800,483.879246) scale(0.100000,-0.100000)"
fill="#FFFFFF" stroke="none">
<path d="M1629 4822 c-106 -35 -194 -115 -241 -218 -20 -41 -23 -66 -23 -159
0 -101 2 -115 28 -164 15 -30 46 -76 68 -103 l41 -48 -41 -46 c-67 -77 -94
-143 -99 -245 -7 -140 40 -251 140 -329 74 -59 147 -84 248 -83 106 0 172 24
255 91 l59 48 60 -48 c85 -68 150 -92 256 -92 136 0 250 59 323 166 54 80 70
142 65 246 -6 103 -26 154 -92 236 l-47 57 41 48 c22 27 53 75 68 108 24 52
27 69 27 163 0 88 -4 113 -23 154 -114 248 -427 312 -632 129 l-45 -41 -45 41
c-106 94 -265 130 -391 89z m186 -173 c34 -9 96 -67 389 -357 230 -230 355
-361 367 -387 34 -73 19 -176 -34 -233 -61 -66 -173 -85 -252 -44 -57 30 -710
686 -730 734 -21 51 -19 131 4 176 50 98 149 140 256 111z m628 0 c151 -42
197 -249 79 -362 l-28 -27 -149 150 -150 150 36 36 c57 57 132 76 212 53z
m-533 -975 c-53 -56 -136 -82 -209 -64 -160 38 -215 237 -98 358 l31 33 150
-150 150 -150 -24 -27z"/>
<path d="M1983 4255 c-37 -16 -53 -42 -53 -86 0 -27 12 -44 68 -101 58 -58 74
-68 103 -68 67 0 109 54 89 115 -11 32 -119 145 -138 145 -6 0 -16 2 -24 5 -7
2 -27 -2 -45 -10z"/>
<path d="M3355 4598 c-3 -7 -4 -218 -3 -468 l3 -455 353 -3 352 -2 0 80 0 80
-257 2 -258 3 -3 123 -3 122 236 0 235 0 0 80 0 80 -235 0 -236 0 3 103 3 102
248 3 247 2 0 80 0 80 -340 0 c-263 0 -342 -3 -345 -12z"/>
<path d="M5154 4356 c-106 -26 -175 -84 -223 -186 -23 -49 -26 -67 -26 -160 1
-112 11 -149 62 -222 80 -117 291 -162 436 -93 70 33 139 108 166 181 29 75
29 203 1 278 -59 155 -245 246 -416 202z m149 -150 c42 -17 83 -66 97 -114 23
-85 4 -200 -42 -249 -72 -77 -199 -58 -248 36 -26 52 -34 128 -21 192 25 117
118 176 214 135z"/>
<path d="M5889 4361 c-65 -12 -123 -45 -156 -87 -22 -30 -28 -49 -31 -104 -8
-141 30 -168 350 -255 40 -11 59 -21 63 -35 17 -55 -31 -90 -124 -90 -50 0
-65 4 -91 27 -17 14 -36 37 -41 51 -9 24 -11 24 -92 17 -45 -4 -86 -11 -91
-15 -13 -12 44 -108 84 -141 57 -48 155 -73 259 -66 107 7 150 21 203 66 97
83 105 227 17 294 -46 34 -96 54 -212 82 -111 28 -145 42 -161 67 -31 50 110
89 184 51 19 -10 41 -31 48 -46 9 -18 19 -26 30 -23 9 2 45 8 80 11 70 8 73
14 43 73 -26 51 -68 88 -119 106 -54 19 -181 28 -243 17z"/>
<path d="M6647 4360 c-81 -21 -160 -81 -198 -151 -42 -80 -51 -237 -19 -341
46 -150 182 -226 363 -204 75 10 153 58 195 120 49 73 45 83 -35 91 -38 4 -75
8 -83 11 -10 2 -22 -9 -34 -31 -38 -70 -126 -81 -190 -24 -28 24 -56 83 -56
118 0 8 64 11 226 11 l227 0 -7 73 c-19 209 -116 318 -296 332 -30 2 -72 0
-93 -5z m143 -146 c33 -20 56 -57 65 -106 l7 -38 -136 0 -135 0 6 33 c20 107
111 159 193 111z"/>
<path d="M4141 4338 c0 -7 60 -159 132 -338 l132 -325 80 0 80 0 132 330 c73
182 132 334 132 338 1 4 -40 6 -91 5 l-91 -3 -75 -205 c-41 -113 -77 -214 -81
-224 -5 -14 -17 11 -44 90 -20 60 -56 161 -80 224 l-42 115 -93 3 c-70 2 -92
0 -91 -10z"/>
</g>
</svg>
