<?xml version="1.0" encoding="UTF-8"?>
<!-- Evose Symbol — NAVY (for light bg) -->
<svg version="1.0" xmlns="http://www.w3.org/2000/svg"
 width="494.408533pt" height="494.105233pt" viewBox="0 0 494.408533 494.105233"
 preserveAspectRatio="xMidYMid meet">
<metadata>
Created by potrace 1.16, written by Peter Selinger 2001-2019
</metadata>
<g transform="translate(-275.232744,791.718998) scale(0.100000,-0.100000)"
fill="#0A1532" stroke="none">
<path d="M3980 7914 c-240 -31 -452 -109 -640 -237 -97 -66 -281 -250 -347
-347 -332 -488 -319 -1135 32 -1604 23 -32 90 -108 147 -169 l105 -113 -101
-104 c-162 -168 -250 -298 -322 -474 -245 -601 -35 -1299 500 -1658 239 -160
475 -231 766 -232 382 0 690 128 978 408 l123 120 67 -65 c121 -118 193 -179
268 -230 151 -102 342 -180 529 -215 120 -23 357 -24 481 -1 486 88 891 430
1053 890 131 371 94 799 -96 1132 -65 114 -139 211 -255 331 l-101 104 115
118 c212 217 319 409 384 687 24 106 28 140 28 290 0 190 -18 299 -75 462
-159 450 -542 784 -1012 885 -139 29 -388 31 -532 4 -297 -56 -540 -192 -784
-440 l-64 -65 -112 107 c-232 221 -437 334 -713 392 -95 20 -342 34 -422 24z
m335 -648 c83 -23 179 -69 245 -118 89 -66 2340 -2324 2384 -2391 87 -133 120
-245 120 -412 1 -136 -15 -208 -68 -320 -101 -212 -289 -358 -523 -407 -147
-30 -299 -15 -438 43 -136 58 -150 70 -1336 1257 -769 770 -1160 1168 -1189
1210 -50 76 -83 148 -106 234 -22 79 -25 279 -5 358 70 280 288 492 571 555
82 18 262 13 345 -9z m2162 8 c151 -31 260 -90 373 -204 95 -94 150 -186 192
-320 19 -63 23 -96 22 -205 0 -120 -3 -137 -33 -227 -43 -125 -104 -218 -220
-333 l-91 -90 -526 525 -525 525 104 100 c109 105 175 150 278 192 131 53 285
66 426 37z m-2222 -2805 l520 -520 -111 -108 c-96 -94 -125 -116 -205 -155
-131 -64 -200 -80 -339 -80 -90 0 -132 4 -195 22 -212 61 -373 197 -470 397
-110 227 -97 491 36 711 37 61 214 254 232 254 7 0 246 -234 532 -521z"/>
<path d="M4950 5893 c-65 -23 -160 -122 -184 -191 -24 -70 -19 -178 13 -242
32 -63 380 -413 446 -448 44 -23 62 -27 140 -27 78 0 97 4 140 27 60 32 114
87 146 148 35 66 34 203 0 275 -34 70 -376 412 -446 446 -64 31 -188 37 -255
12z"/>
</g>
</svg>
